<svg xmlns="http://www.w3.org/2000/svg" width="192" height="192" viewBox="0 0 192 192" role="img" aria-label="Feedback Kitchen">
  <defs>
    <clipPath id="fkTile"><rect width="192" height="192" rx="38"/></clipPath>
  </defs>
  <g clip-path="url(#fkTile)">
    <rect width="192" height="192" fill="#ffffff"/>
    <path fill="#1e3a5f" fill-rule="evenodd" d="M 0,96 V 0 h 96 96 v 96 96 H 96 0 Z m 66.371662,85.47306 c 12.702022,-1.91494 27.584919,-5.65394 27.755923,-6.97306 0.0713,-0.55 -2.761593,-2.125 -6.295315,-3.5 -3.533723,-1.375 -7.992221,-3.48778 -9.907774,-4.69508 C 73.365678,163.4317 57.08331,158 53.029171,158 c -2.484986,0 -3.103265,-0.38068 -2.842279,-1.75 0.183446,-0.9625 1.314993,-1.89033 2.514548,-2.06185 1.354873,-0.19372 3.18998,-2.03353 4.844708,-4.85711 l 2.663701,-4.54526 -2.11765,-9.08016 c -2.000565,-8.57812 -1.783139,-11.86871 0.683495,-10.34425 0.886042,0.54761 1.587958,2.76165 4.211988,13.28581 1.118867,4.48742 2.801876,5.69473 6.607184,4.73965 l 2.435939,-0.61138 -0.649175,-17.63772 C 70.6122,104.23273 70.303202,104.86498 82.422701,102.54614 90.878886,100.92821 93,99.788929 93,96.864945 c 0,-1.324151 -1.608652,-2.601587 -5.371983,-4.265911 -2.954591,-1.30666 -5.681148,-2.875986 -6.059017,-3.48739 -1.244667,-2.013914 -3.185234,-1.161893 -4.638533,2.036585 -1.306476,2.875344 -2.630064,3.559995 -15.270015,7.898701 -20.541547,7.05096 -21.64456,8.49632 -26.685967,34.96867 -6.03403,31.68461 -3.964091,43.01726 8.680704,47.52575 5.052607,1.8015 10.420999,1.78536 22.716473,-0.0683 z m 81.105788,0.41156 c 2.1876,-0.60733 5.62097,-2.74775 7.62971,-4.75649 4.35827,-4.35827 6.4448,-12.25386 5.40279,-20.4446 -1.5916,-12.51088 -7.72305,-41.4923 -9.59751,-45.36441 -2.66808,-5.5115 -6.13399,-7.54436 -21.63511,-12.689593 C 117.64743,94.769255 116.3653,94.10349 115,91.215838 c -1.52232,-3.219754 -3.34561,-4.083674 -4.53998,-2.151147 -0.36191,0.585581 -3.17228,2.273081 -6.24527,3.75 -4.19986,2.018512 -6.099704,3.657576 -7.650999,6.600799 -2.268314,4.3036 -5.3583,5.81844 -14.407162,7.06297 -7.902182,1.08683 -8.167161,1.86592 -6.979688,20.52154 0.542636,8.525 1.287321,15.80216 1.654855,16.17146 0.367534,0.36931 8.282945,1.83502 17.589802,3.25714 l 16.921562,2.58567 4.9419,-5.5447 c 2.71805,-3.04958 6.71634,-6.44994 8.88508,-7.55635 2.91792,-1.48861 4.4485,-3.19053 5.88669,-6.54572 2.80277,-6.53859 5.58166,-4.86109 3.53262,2.1325 -0.44078,1.50443 0.21182,2.49606 2.63374,4.00195 4.44338,2.76279 5.74493,5.87528 5.76211,13.77943 0.0116,5.34147 -0.32969,6.91356 -1.60738,7.40386 -0.89217,0.34235 -13.98795,-1.29099 -29.10173,-3.62966 -20.001204,-3.09494 -27.779244,-3.95249 -28.580658,-3.15107 -1.736204,1.7362 -2.174194,13.473 -0.548735,14.70445 3.779492,2.86336 38.428883,15.05197 50.353243,17.71276 3.82709,0.85397 10.02514,0.66015 13.97745,-0.4371 z M 80.958347,134.44981 c -1.06278,-1.28057 -0.997114,-1.83961 0.377556,-3.21428 1.552129,-1.55213 1.776065,-1.55213 3.328194,0 1.37467,1.37467 1.440336,1.93371 0.377556,3.21428 C 84.334055,135.30242 83.415311,136 83,136 c -0.415311,0 -1.334055,-0.69758 -2.041653,-1.55019 z M 108.25,135.33333 c -1.8187,-0.72748 -1.53079,-4.0116 0.41722,-4.75912 2.08462,-0.79995 3.62912,0.65224 3.17656,2.9867 -0.37435,1.93103 -1.63854,2.55452 -3.59378,1.77242 z M 80.985988,116.48312 c -1.098395,-1.32349 -1.042112,-1.85557 0.342772,-3.24045 1.947238,-1.94724 4.070458,-0.54692 3.51502,2.31824 -0.467583,2.41198 -2.264826,2.84161 -3.857792,0.92221 z m 27.000002,0 c -1.0984,-1.32349 -1.04211,-1.85557 0.34277,-3.24045 1.94724,-1.94724 4.07046,-0.54692 3.51502,2.31824 -0.46758,2.41198 -2.26483,2.84161 -3.85779,0.92221 z M 78.226253,155 c 0.425821,-2.475 0.581131,-5.01587 0.345133,-5.64638 -0.748167,-1.99884 -9.875483,-2.67123 -13.830222,-1.01883 -2.994264,1.25108 -5.762009,4.9777 -4.577013,6.16269 1.102918,1.10292 13.658626,5.36827 15.311865,5.20166 1.511604,-0.15234 2.157978,-1.25675 2.750237,-4.69914 z m 60.124527,-4.19146 c 0.81236,-1.29004 0.64089,-2.16027 -0.72252,-3.66682 -1.38343,-1.52867 -1.5508,-2.41794 -0.74014,-3.93267 C 138.1646,140.82393 135.5859,138 132.13142,138 c -3.38896,0 -9.72361,3.61855 -12.04721,6.88173 -3.55039,4.98607 -3.70462,4.87031 9.41579,7.06668 6.40093,1.07152 7.55154,0.92333 8.85078,-1.13987 z M 103.6883,89.054554 c 4.75439,-2.158533 9.80018,-8.441206 11.32385,-14.09969 0.55344,-2.055294 2.05904,-4.426716 3.34579,-5.269828 1.36312,-0.893145 2.85899,-3.388194 3.58414,-5.978158 1.06675,-3.810068 1.01135,-4.896256 -0.38774,-7.601793 -0.90438,-1.748876 -1.52596,-4.959095 -1.39383,-7.19851 0.28572,-4.84238 -0.32918,-5.3183 -9.0916,-7.036631 C 98.733152,39.450873 76.590698,40.810407 72.25,44.253403 71.5625,44.79872 71,47.193615 71,49.575392 c 0,2.381776 -0.506541,5.442239 -1.125647,6.801029 -1.622586,3.561187 -0.202617,9.506989 2.995905,12.544683 1.493488,1.418393 3.510946,4.690408 4.48324,7.271144 2.467165,6.54854 4.84809,9.230992 10.846499,12.220124 6.150245,3.064797 9.817343,3.216844 15.488303,0.642182 z m 19.74627,-59.836003 c 1.71574,-9.004215 1.77577,-10.436778 0.4912,-11.721348 C 121.5352,15.106631 102.10916,9.6430039 96,9.6430039 c -5.555696,0 -24.950012,5.2406941 -27.632212,7.4667221 C 66.604745,18.572922 66.747359,22.78001 68.855595,31.5 l 1.692393,7 3.976006,-0.248947 C 94.196809,37.019291 107.95218,37.062798 113,38.372748 c 3.025,0.785012 6.17049,1.354491 6.98997,1.265509 1.06655,-0.115809 2.04545,-3.076918 3.4446,-10.419706 z"/>
  </g>
</svg>
